<svg width="40" height="40" viewBox="0 0 40 40" fill="none" xmlns="http://www.w3.org/2000/svg">
<circle cx="20" cy="20" r="20" fill="#2F2F2F"/>
<path d="M22.0358 18.5068L25.2833 16.6318L28.4474 22.1121C28.1942 23.1423 27.7575 24.0891 27.1373 24.9524C26.5228 25.7943 25.7082 26.5082 24.6933 27.0941C23.7731 27.6254 22.7902 27.9854 21.7445 28.1742C20.7045 28.3416 19.6637 28.3201 18.622 28.1096C17.5938 27.8913 16.6229 27.4595 15.7091 26.8144C14.8089 26.1614 14.0346 25.2733 13.3861 24.1502C12.7377 23.0271 12.3558 21.9124 12.2404 20.8063C12.1385 19.6924 12.2501 18.6356 12.5751 17.6361C12.9137 16.6287 13.4193 15.7233 14.0921 14.9199C14.7707 14.0952 15.57 13.4172 16.4902 12.8859C17.2073 12.4718 17.929 12.1905 18.6551 12.0419C19.3812 11.8933 20.0876 11.8824 20.7742 12.0092L22.8953 15.6831C22.104 15.5626 21.4023 15.5347 20.7902 15.5994C20.1702 15.6506 19.4679 15.9028 18.683 16.3559C18.0741 16.7075 17.5956 17.1912 17.2476 17.8072C16.913 18.4153 16.7397 19.0837 16.7274 19.8125C16.7073 20.5277 16.8926 21.2236 17.2832 21.9002C17.6739 22.5768 18.1878 23.0919 18.8251 23.4457C19.4545 23.7859 20.1162 23.9632 20.8101 23.9776C21.5175 23.9841 22.1757 23.8116 22.7846 23.4601C23.0958 23.2804 23.3711 23.0853 23.6105 22.875C23.8421 22.651 24.0252 22.437 24.16 22.2329L22.0358 18.5068Z" fill="white"/>
</svg>
