<svg width="104" height="24" viewBox="0 0 104 24" fill="none" xmlns="http://www.w3.org/2000/svg">
<g clip-path="url(#clip0_84_2289)">
<path fill-rule="evenodd" clip-rule="evenodd" d="M32.4769 3.77544C32.097 2.30766 30.9731 1.14991 29.5432 0.753078C26.9577 0.0408936 16.5841 0.0408936 16.5841 0.0408936C16.5841 0.0408936 6.21578 0.0408936 3.625 0.753078C2.20041 1.14443 1.07648 2.30232 0.691293 3.77544C-6.50166e-08 6.43903 0 12 0 12C0 12 -6.50166e-08 17.561 0.691293 20.2246C1.07116 21.6924 2.1951 22.8502 3.625 23.247C6.21578 23.9592 16.5841 23.9592 16.5841 23.9592C16.5841 23.9592 26.9577 23.9592 29.5432 23.247C30.9679 22.8557 32.0917 21.6978 32.4769 20.2246C33.1682 17.561 33.1682 12.0001 33.1682 12.0001C33.1682 12.0001 33.1682 6.43903 32.4769 3.77544Z" fill="#FF0000"/>
<path fill-rule="evenodd" clip-rule="evenodd" d="M13.2705 17.1261L21.887 11.9999L13.2705 6.8739V17.1261Z" fill="white"/>
<path fill-rule="evenodd" clip-rule="evenodd" d="M48.1429 21.801C47.4886 21.3445 47.019 20.6378 46.7447 19.6757C46.4702 18.7135 46.3277 17.436 46.3277 15.8378V13.6634C46.3277 12.049 46.486 10.7553 46.8026 9.7766C47.1192 8.79822 47.6153 8.08618 48.2853 7.64033C48.9554 7.19461 49.8367 6.96635 50.9288 6.96635C52.0053 6.96635 52.8654 7.19462 53.5143 7.65128C54.1633 8.10781 54.6382 8.82 54.939 9.78756C55.2398 10.7553 55.3876 12.049 55.3876 13.6579V15.8324C55.3876 17.4305 55.2398 18.7135 54.9495 19.681C54.6594 20.6486 54.1846 21.3608 53.5249 21.8065C52.8706 22.2522 51.9789 22.4807 50.8549 22.4807C49.7047 22.4859 48.7971 22.2577 48.1429 21.801ZM51.8206 19.4528C52 18.9635 52.095 18.1644 52.095 17.061V12.3915C52.095 11.315 52.0053 10.5323 51.8206 10.0323C51.6413 9.53752 51.3193 9.28748 50.8602 9.28748C50.4171 9.28748 50.1057 9.53752 49.9211 10.0323C49.7416 10.5269 49.6467 11.315 49.6467 12.3915V17.061C49.6467 18.1698 49.7311 18.969 49.9053 19.4528C50.0794 19.942 50.396 20.1866 50.8551 20.1866C51.3193 20.1866 51.6359 19.942 51.8206 19.4528ZM98.5176 15.8758V16.6315C98.5176 17.5936 98.5441 18.3112 98.6022 18.7949C98.6548 19.2734 98.771 19.6267 98.9451 19.8442C99.1192 20.0616 99.3882 20.1758 99.7523 20.1758C100.243 20.1758 100.581 19.9801 100.76 19.5886C100.94 19.1972 101.04 18.5449 101.056 17.6317L103.879 17.8003C103.894 17.9306 103.9 18.11 103.9 18.3383C103.9 19.7246 103.53 20.7573 102.797 21.4422C102.063 22.1272 101.024 22.4696 99.6785 22.4696C98.0639 22.4696 96.9348 21.9478 96.2857 20.9041C95.6367 19.8604 95.3149 18.2513 95.3149 16.0662V13.4514C95.3149 11.201 95.6525 9.56463 96.3226 8.52655C96.9927 7.49368 98.143 6.97717 99.7736 6.97717C100.897 6.97717 101.757 7.18928 102.359 7.61322C102.96 8.03716 103.383 8.69484 103.631 9.59188C103.873 10.4888 104 11.7283 104 13.3047V15.8705H98.5176V15.8758ZM98.9345 9.57011C98.7708 9.78222 98.6601 10.13 98.602 10.6085C98.544 11.0868 98.5176 11.8207 98.5176 12.7936V13.87H100.913V12.7936C100.913 11.8314 100.882 11.1031 100.818 10.6085C100.755 10.1137 100.639 9.76044 100.475 9.55929C100.312 9.35814 100.053 9.25489 99.7048 9.25489C99.3566 9.24941 99.0981 9.35814 98.9345 9.57011ZM40.1753 15.5932L36.4503 1.73692H39.7004L41.0038 8.01552C41.3362 9.56477 41.5789 10.8803 41.7372 11.9729H41.8321C41.943 11.19 42.1857 9.87998 42.5657 8.03716L43.9164 1.73145H47.1667L43.3993 15.5932V22.2414H40.1753V15.5932ZM65.9564 7.25993V22.2359H63.3972L63.1122 20.404H63.0436C62.3472 21.7902 61.3025 22.4806 59.9147 22.4806C58.9492 22.4806 58.2368 22.1544 57.7778 21.5021C57.3187 20.8497 57.0918 19.8333 57.0918 18.4471V7.25993H60.3633V18.2568C60.3633 18.9254 60.4319 19.4039 60.5744 19.6865C60.7168 19.9691 60.9542 20.1159 61.2866 20.1159C61.5716 20.1159 61.846 20.0288 62.1045 19.8496C62.363 19.6702 62.5582 19.4418 62.6849 19.1646V7.25979L65.9564 7.25993ZM82.7462 7.25993V22.2359H80.187L79.9021 20.404H79.8335C79.137 21.7902 78.0923 22.4806 76.7045 22.4806C75.739 22.4806 75.0266 22.1544 74.5677 21.5021C74.1086 20.8497 73.8817 19.8333 73.8817 18.4471V7.25993H77.1531V18.2568C77.1531 18.9254 77.2217 19.4039 77.3642 19.6865C77.5065 19.9691 77.7441 20.1159 78.0765 20.1159C78.3615 20.1159 78.6358 20.0288 78.8943 19.8496C79.1528 19.6702 79.3481 19.4418 79.4748 19.1646V7.25979L82.7462 7.25993Z" fill="#282828"/>
<path fill-rule="evenodd" clip-rule="evenodd" d="M74.8525 4.44953H71.6022V22.2359H68.3993V4.44953H65.149V1.73705H74.8472V4.44953H74.8525ZM93.5788 9.65705C93.3783 8.71126 93.0617 8.02633 92.6185 7.60239C92.1753 7.17831 91.5686 6.96634 90.7927 6.96634C90.1914 6.96634 89.632 7.14024 89.1096 7.49367C88.5873 7.84147 88.1863 8.30362 87.9013 8.87435H87.875V0.981323H84.7196V22.2414H87.4211L87.7535 20.8226H87.8222C88.0754 21.3282 88.4553 21.725 88.9618 22.0184C89.4684 22.312 90.0278 22.4588 90.6451 22.4588C91.7532 22.4588 92.5657 21.9315 93.0882 20.8823C93.6104 19.8333 93.8691 18.1916 93.8691 15.9574V13.5873C93.8744 11.913 93.774 10.603 93.5788 9.65719V9.65705ZM90.5765 15.7671C90.5765 16.8598 90.5342 17.7132 90.4446 18.3329C90.3601 18.9527 90.2124 19.3929 90.0067 19.6539C89.8008 19.9147 89.5265 20.0452 89.1782 20.0452C88.9091 20.0452 88.6612 19.9801 88.429 19.8496C88.2021 19.7191 88.0121 19.5234 87.8697 19.2624V10.7552C87.9805 10.3475 88.1705 10.016 88.4396 9.7551C88.7086 9.4941 88.9988 9.36361 89.3154 9.36361C89.6478 9.36361 89.9063 9.49944 90.0858 9.76577C90.2652 10.0322 90.3919 10.4888 90.4656 11.1193C90.5343 11.7554 90.5712 12.6578 90.5712 13.8318V15.7671H90.5765Z" fill="#282828"/>
</g>
<defs>
<clipPath id="clip0_84_2289">
<rect width="104" height="24" fill="white"/>
</clipPath>
</defs>
</svg>
