<svg width="93" height="16" viewBox="0 0 93 16" fill="none" xmlns="http://www.w3.org/2000/svg">
<g clip-path="url(#clip0_162_993)">
<path d="M66.7225 8V16H79.7613H92.8001V8V0H79.7613H66.7225V8ZM90.8218 4.30769V5.62637H88.1241H85.4264V9.31868V13.011H83.628H81.8295V9.33626V5.64396L79.1498 5.59121L76.4521 5.53846L74.276 9.26593L72.0999 13.011H70.3734C68.9706 13.011 68.6828 12.9582 68.7548 12.7648C68.8627 12.5187 73.7365 4.11429 74.2041 3.37582L74.4559 2.98901H82.6388H90.8218V4.30769Z" fill="#DB3B15"/>
<path d="M0.179871 4.044V5.27477H4.94576H9.71165V6.15389V7.03301H4.94576H0.179871V9.93411V12.8352H1.8884H3.59692V11.0945V9.3363L7.3377 9.28356C10.6828 9.23081 11.1324 9.19564 11.672 8.87916C12.787 8.24619 13.0388 7.71872 13.0388 6.10114C13.0388 4.85279 12.9848 4.57147 12.6072 4.06158C11.7439 2.90114 11.3303 2.81323 5.44933 2.81323H0.179871V4.044Z" fill="white"/>
<path d="M15.2869 4.04399V5.27476H20.0528H24.8186V6.15388V7.033H20.0528H15.2869V9.9341V12.8352H16.9954H18.7039V11.077V9.31872H19.6751C20.6283 9.31872 20.6642 9.3363 22.8943 11.077L25.1424 12.8528L27.6962 12.8L30.232 12.7473L27.7681 11.077C25.52 9.56487 25.3402 9.40663 25.7359 9.26597C27.7501 8.54509 28.1458 8.01762 28.1458 6.10113C28.1458 4.85278 28.0918 4.57146 27.7142 4.06157C26.8509 2.90113 26.4373 2.81322 20.5563 2.81322H15.2869V4.04399Z" fill="white"/>
<path d="M32.3721 4.044V5.27477H37.9473H43.5225V7.82422V10.3737H39.6559H35.7892V8.70334V7.03301H34.0807H32.3721V9.93411V12.8352H39.6559H46.9396V7.82422V2.81323H39.6559H32.3721V4.044Z" fill="white"/>
<path d="M49.8171 4.02641V5.27476H53.8276C58.3957 5.27476 59.3668 5.433 60.1402 6.34728C60.5179 6.76926 60.6078 7.06816 60.6078 7.82421C60.6078 9.75827 59.3848 10.3737 55.5361 10.3737H53.2341V8.5275V6.68135H51.5256H49.8171V9.77586V12.8704L54.7268 12.8C59.133 12.7121 59.7445 12.677 60.8416 12.3253C63.1076 11.6044 64.1148 10.2154 64.1148 7.82421C64.1148 5.433 63.1076 4.04399 60.8416 3.32311C59.7445 2.97146 59.133 2.93629 54.7268 2.84838L49.8171 2.77805V4.02641Z" fill="white"/>
</g>
<defs>
<clipPath id="clip0_162_993">
<rect width="92.8" height="16" fill="white"/>
</clipPath>
</defs>
</svg>
