<svg width="194" height="32" viewBox="0 0 194 32" fill="none" xmlns="http://www.w3.org/2000/svg">
<path d="M16 29.3334C8.63599 29.3334 2.66666 23.3641 2.66666 16.0001C2.66666 8.63608 8.63599 2.66675 16 2.66675C23.364 2.66675 29.3333 8.63608 29.3333 16.0001C29.3333 23.3641 23.364 29.3334 16 29.3334ZM16 26.6667C18.829 26.6667 21.5421 25.5429 23.5425 23.5426C25.5428 21.5422 26.6667 18.8291 26.6667 16.0001C26.6667 13.1711 25.5428 10.458 23.5425 8.45761C21.5421 6.45722 18.829 5.33341 16 5.33341C13.171 5.33341 10.4579 6.45722 8.45752 8.45761C6.45713 10.458 5.33332 13.1711 5.33332 16.0001C5.33332 18.8291 6.45713 21.5422 8.45752 23.5426C10.4579 25.5429 13.171 26.6667 16 26.6667ZM16 9.40008L18.828 13.1721L22.6 16.0001L18.828 18.8281L16 22.6001L13.172 18.8281L9.39999 16.0001L13.172 13.1721L16 9.40008ZM16 13.1721L15 15.0001L13.172 16.0001L15 17.0001L16 18.8281L17 17.0001L18.828 16.0001L17 15.0001L16 13.1721Z" fill="white"/>
<path d="M47.4453 8.94531C48.5859 8.94531 49.5156 9.10156 50.2344 9.41406C50.9688 9.72656 51.6094 10.1328 52.1562 10.6328V12.9531C51.8125 12.7031 51.4219 12.4297 50.9844 12.1328C50.5625 11.8359 50.0625 11.5781 49.4844 11.3594C48.9219 11.125 48.2422 11.0078 47.4453 11.0078C46.2734 11.0078 45.2266 11.2734 44.3047 11.8047C43.3828 12.3359 42.6562 13.0703 42.125 14.0078C41.5938 14.9297 41.3281 15.9766 41.3281 17.1484C41.3281 18.3203 41.5938 19.3672 42.125 20.2891C42.6562 21.2109 43.3828 21.9453 44.3047 22.4922C45.2266 23.0234 46.2734 23.2891 47.4453 23.2891C48.6484 23.2891 49.6719 23.0938 50.5156 22.7031C51.375 22.2969 52.0781 21.8828 52.625 21.4609V23.5703C52.0781 24.0547 51.3594 24.4766 50.4688 24.8359C49.5938 25.1797 48.5859 25.3516 47.4453 25.3516C46.2578 25.3516 45.1641 25.1406 44.1641 24.7188C43.1641 24.2812 42.2891 23.6875 41.5391 22.9375C40.7891 22.1875 40.2031 21.3203 39.7812 20.3359C39.375 19.3359 39.1719 18.2734 39.1719 17.1484C39.1719 16.0234 39.375 14.9688 39.7812 13.9844C40.2031 12.9844 40.7891 12.1094 41.5391 11.3594C42.2891 10.6094 43.1641 10.0234 44.1641 9.60156C45.1641 9.16406 46.2578 8.94531 47.4453 8.94531ZM60.6172 13.0469C61.8203 13.0469 62.8203 13.2969 63.6172 13.7969C64.4141 14.2969 65.0078 14.9766 65.3984 15.8359C65.8047 16.6953 66.0078 17.6641 66.0078 18.7422V19.8906H57.0078C57.1016 20.5469 57.3281 21.1484 57.6875 21.6953C58.0469 22.2422 58.5156 22.6797 59.0938 23.0078C59.6719 23.3203 60.3359 23.4766 61.0859 23.4766C61.9297 23.4766 62.7188 23.2656 63.4531 22.8438C64.1875 22.4062 64.8047 21.9297 65.3047 21.4141L65.2812 23.5C65.0625 23.7656 64.7344 24.0469 64.2969 24.3438C63.875 24.625 63.3828 24.8594 62.8203 25.0469C62.2734 25.25 61.6953 25.3516 61.0859 25.3516C59.8984 25.3516 58.8438 25.0703 57.9219 24.5078C57 23.9453 56.2734 23.2031 55.7422 22.2812C55.2266 21.3438 54.9688 20.3203 54.9688 19.2109C54.9688 18.1016 55.2109 17.0781 55.6953 16.1406C56.1797 15.2031 56.8438 14.4531 57.6875 13.8906C58.5469 13.3281 59.5234 13.0469 60.6172 13.0469ZM60.6172 14.9219C59.6484 14.9219 58.8516 15.25 58.2266 15.9062C57.6016 16.5469 57.2109 17.3281 57.0547 18.25H64.1094C64.0312 17.4844 63.8125 16.8594 63.4531 16.375C63.1094 15.8906 62.6875 15.5312 62.1875 15.2969C61.6875 15.0469 61.1641 14.9219 60.6172 14.9219ZM71.0938 13.2812V15.1328C71.3438 14.8203 71.6641 14.5078 72.0547 14.1953C72.4453 13.8672 72.8828 13.5938 73.3672 13.375C73.8672 13.1562 74.3828 13.0469 74.9141 13.0469C75.7109 13.0469 76.4375 13.2266 77.0938 13.5859C77.75 13.9297 78.2734 14.4609 78.6641 15.1797C79.0547 15.8828 79.25 16.7734 79.25 17.8516V25H77.3281L77.3047 18.0391C77.3047 17.0234 77.0781 16.25 76.625 15.7188C76.1875 15.1875 75.5078 14.9219 74.5859 14.9219C73.9609 14.9219 73.3359 15.1562 72.7109 15.625C72.1016 16.0781 71.5625 16.6094 71.0938 17.2188V25H69.1719V13.2812H71.0938ZM86.375 13.0469C87.0625 13.0469 87.7031 13.1484 88.2969 13.3516C88.8906 13.5391 89.3203 13.7344 89.5859 13.9375V16C89.2578 15.75 88.8125 15.5078 88.25 15.2734C87.6875 15.0391 87.1094 14.9219 86.5156 14.9219C85.7812 14.9219 85.2266 15.0938 84.8516 15.4375C84.4922 15.7812 84.3125 16.1406 84.3125 16.5156C84.3125 16.8125 84.4141 17.1172 84.6172 17.4297C84.8359 17.7266 85.2109 17.9688 85.7422 18.1562L87.7109 18.8594C88.4766 19.125 89.0469 19.5078 89.4219 20.0078C89.7969 20.5078 89.9844 21.0938 89.9844 21.7656C89.9844 22.4219 89.7969 23.0234 89.4219 23.5703C89.0625 24.1172 88.5547 24.5547 87.8984 24.8828C87.2578 25.1953 86.5156 25.3516 85.6719 25.3516C85.2188 25.3516 84.7422 25.2891 84.2422 25.1641C83.7578 25.0547 83.3203 24.9219 82.9297 24.7656C82.5391 24.5938 82.25 24.4453 82.0625 24.3203V22.2578C82.2812 22.4141 82.5859 22.5938 82.9766 22.7969C83.3828 22.9844 83.8125 23.1484 84.2656 23.2891C84.7188 23.4141 85.1406 23.4766 85.5312 23.4766C86.2656 23.4766 86.8438 23.3125 87.2656 22.9844C87.7031 22.6562 87.9219 22.25 87.9219 21.7656C87.9219 21.3906 87.7734 21.0938 87.4766 20.875C87.1953 20.6562 86.7812 20.4453 86.2344 20.2422L84.5 19.6094C83.5938 19.2656 82.9922 18.8359 82.6953 18.3203C82.3984 17.7891 82.25 17.1875 82.25 16.5156C82.25 15.5156 82.625 14.6875 83.375 14.0312C84.125 13.375 85.125 13.0469 86.375 13.0469ZM98.2109 13.0469C99.3984 13.0469 100.453 13.3281 101.375 13.8906C102.297 14.4531 103.016 15.2031 103.531 16.1406C104.062 17.0781 104.328 18.1016 104.328 19.2109C104.328 20.3203 104.062 21.3438 103.531 22.2812C103.016 23.2031 102.297 23.9453 101.375 24.5078C100.453 25.0703 99.3984 25.3516 98.2109 25.3516C97.0234 25.3516 95.9688 25.0703 95.0469 24.5078C94.125 23.9453 93.3984 23.2031 92.8672 22.2812C92.3516 21.3438 92.0938 20.3203 92.0938 19.2109C92.0938 18.1016 92.3516 17.0781 92.8672 16.1406C93.3984 15.2031 94.125 14.4531 95.0469 13.8906C95.9688 13.3281 97.0234 13.0469 98.2109 13.0469ZM98.2109 14.9219C97.3828 14.9219 96.6562 15.125 96.0312 15.5312C95.4062 15.9219 94.9219 16.4453 94.5781 17.1016C94.25 17.7422 94.0859 18.4453 94.0859 19.2109C94.0859 19.9609 94.25 20.6641 94.5781 21.3203C94.9219 21.9609 95.4062 22.4844 96.0312 22.8906C96.6562 23.2812 97.3828 23.4766 98.2109 23.4766C99.0547 23.4766 99.7812 23.2812 100.391 22.8906C101.016 22.4844 101.492 21.9609 101.82 21.3203C102.164 20.6641 102.336 19.9609 102.336 19.2109C102.336 18.4453 102.164 17.7422 101.82 17.1016C101.492 16.4453 101.016 15.9219 100.391 15.5312C99.7812 15.125 99.0547 14.9219 98.2109 14.9219ZM109.414 13.2812V15.625C109.867 14.8438 110.414 14.2188 111.055 13.75C111.695 13.2812 112.352 13.0469 113.023 13.0469C113.477 13.0469 113.883 13.125 114.242 13.2812V15.5078C113.742 15.2109 113.242 15.0625 112.742 15.0625C111.945 15.0625 111.297 15.3438 110.797 15.9062C110.312 16.4688 109.852 17.1406 109.414 17.9219V25H107.492V13.2812H109.414ZM121.531 13.0469C122.734 13.0469 123.734 13.2969 124.531 13.7969C125.328 14.2969 125.922 14.9766 126.312 15.8359C126.719 16.6953 126.922 17.6641 126.922 18.7422V19.8906H117.922C118.016 20.5469 118.242 21.1484 118.602 21.6953C118.961 22.2422 119.43 22.6797 120.008 23.0078C120.586 23.3203 121.25 23.4766 122 23.4766C122.844 23.4766 123.633 23.2656 124.367 22.8438C125.102 22.4062 125.719 21.9297 126.219 21.4141L126.195 23.5C125.977 23.7656 125.648 24.0469 125.211 24.3438C124.789 24.625 124.297 24.8594 123.734 25.0469C123.188 25.25 122.609 25.3516 122 25.3516C120.812 25.3516 119.758 25.0703 118.836 24.5078C117.914 23.9453 117.188 23.2031 116.656 22.2812C116.141 21.3438 115.883 20.3203 115.883 19.2109C115.883 18.1016 116.125 17.0781 116.609 16.1406C117.094 15.2031 117.758 14.4531 118.602 13.8906C119.461 13.3281 120.438 13.0469 121.531 13.0469ZM121.531 14.9219C120.562 14.9219 119.766 15.25 119.141 15.9062C118.516 16.5469 118.125 17.3281 117.969 18.25H125.023C124.945 17.4844 124.727 16.8594 124.367 16.375C124.023 15.8906 123.602 15.5312 123.102 15.2969C122.602 15.0469 122.078 14.9219 121.531 14.9219ZM140.68 8.125V25H138.758V23.0078C138.352 23.6328 137.797 24.1797 137.094 24.6484C136.406 25.1172 135.617 25.3516 134.727 25.3516C133.727 25.3516 132.812 25.1016 131.984 24.6016C131.156 24.0859 130.492 23.375 129.992 22.4688C129.508 21.5625 129.266 20.5156 129.266 19.3281C129.266 18.0312 129.508 16.9141 129.992 15.9766C130.492 15.0391 131.172 14.3203 132.031 13.8203C132.891 13.3047 133.852 13.0469 134.914 13.0469C135.586 13.0469 136.266 13.2109 136.953 13.5391C137.656 13.8516 138.258 14.2891 138.758 14.8516V8.125H140.68ZM135.266 14.9688C134.422 14.9688 133.703 15.1797 133.109 15.6016C132.516 16.0078 132.055 16.5391 131.727 17.1953C131.414 17.8516 131.258 18.5625 131.258 19.3281C131.258 20.0781 131.414 20.7734 131.727 21.4141C132.039 22.0391 132.477 22.5391 133.039 22.9141C133.617 23.2891 134.281 23.4766 135.031 23.4766C135.75 23.4766 136.391 23.2891 136.953 22.9141C137.516 22.5391 137.961 22.0234 138.289 21.3672C138.617 20.6953 138.773 19.9453 138.758 19.1172L138.734 16.8672C138.25 16.2578 137.727 15.7891 137.164 15.4609C136.617 15.1328 135.984 14.9688 135.266 14.9688Z" fill="white"/>
</svg>
