<svg width="55" height="24" viewBox="0 0 55 24" fill="none" xmlns="http://www.w3.org/2000/svg">
<path d="M10.1031 22C4.52315 22 0 17.523 0 12C0 6.477 4.52315 2 10.1031 2C15.683 2 20.2062 6.477 20.2062 12C20.2062 17.523 15.683 22 10.1031 22ZM10.1031 20C12.2467 20 14.3025 19.1571 15.8183 17.6569C17.334 16.1566 18.1856 14.1217 18.1856 12C18.1856 9.87827 17.334 7.84344 15.8183 6.34315C14.3025 4.84285 12.2467 4 10.1031 4C7.95949 4 5.90368 4.84285 4.38792 6.34315C2.87216 7.84344 2.02062 9.87827 2.02062 12C2.02062 14.1217 2.87216 16.1566 4.38792 17.6569C5.90368 19.1571 7.95949 20 10.1031 20ZM10.1031 7.05L12.246 9.879L15.1041 12L12.246 14.121L10.1031 16.95L7.96023 14.121L5.10206 12L7.96023 9.879L10.1031 7.05ZM10.1031 9.879L9.34535 11.25L7.96023 12L9.34535 12.75L10.1031 14.121L10.8608 12.75L12.246 12L10.8608 11.25L10.1031 9.879Z" fill="white"/>
</svg>
