<svg width="18" height="18" viewBox="0 0 18 18" fill="none" xmlns="http://www.w3.org/2000/svg">
<g clip-path="url(#clip0_650_3275)" filter="url(#filter0_d_650_3275)">
<path fill-rule="evenodd" clip-rule="evenodd" d="M9 2C7.14348 2 5.36301 2.7375 4.05025 4.05025C2.7375 5.36301 2 7.14348 2 9C2 10.8565 2.7375 12.637 4.05025 13.9497C5.36301 15.2625 7.14348 16 9 16C10.8565 16 12.637 15.2625 13.9497 13.9497C15.2625 12.637 16 10.8565 16 9C16 7.14348 15.2625 5.36301 13.9497 4.05025C12.637 2.7375 10.8565 2 9 2V2ZM9 17C6.87827 17 4.84344 16.1571 3.34315 14.6569C1.84285 13.1566 1 11.1217 1 9C1 6.87827 1.84285 4.84344 3.34315 3.34315C4.84344 1.84286 6.87827 1 9 1C11.1217 1 13.1566 1.84285 14.6569 3.34315C16.1571 4.84344 17 6.87827 17 9C17 11.1217 16.1571 13.1566 14.6569 14.6569C13.1566 16.1571 11.1217 17 9 17V17ZM6.197 6.854C6.10311 6.76025 6.05032 6.63304 6.05022 6.50035C6.05013 6.36767 6.10275 6.24039 6.1965 6.1465C6.29025 6.05261 6.41746 5.99982 6.55015 5.99972C6.68283 5.99963 6.81011 6.05225 6.904 6.146L11 10.243L11 7.475C11 7.34239 11.0527 7.21521 11.1464 7.12145C11.2402 7.02768 11.3674 6.975 11.5 6.975C11.6326 6.975 11.7598 7.02768 11.8536 7.12145C11.9473 7.21521 12 7.34239 12 7.475L12 11.45C12 11.5826 11.9473 11.7098 11.8536 11.8036C11.7598 11.8973 11.6326 11.95 11.5 11.95L7.525 11.95C7.39239 11.95 7.26522 11.8973 7.17145 11.8036C7.07768 11.7098 7.025 11.5826 7.025 11.45C7.025 11.3174 7.07768 11.1902 7.17145 11.0964C7.26522 11.0027 7.39239 10.95 7.525 10.95L10.293 10.95L6.197 6.854V6.854Z" fill="#FF5E5B"/>
</g>
<defs>
<filter id="filter0_d_650_3275" x="0" y="0" width="18" height="18" filterUnits="userSpaceOnUse" color-interpolation-filters="sRGB">
<feFlood flood-opacity="0" result="BackgroundImageFix"/>
<feColorMatrix in="SourceAlpha" type="matrix" values="0 0 0 0 0 0 0 0 0 0 0 0 0 0 0 0 0 0 127 0" result="hardAlpha"/>
<feOffset/>
<feGaussianBlur stdDeviation="0.5"/>
<feColorMatrix type="matrix" values="0 0 0 0 1 0 0 0 0 0.368627 0 0 0 0 0.356863 0 0 0 1 0"/>
<feBlend mode="normal" in2="BackgroundImageFix" result="effect1_dropShadow_650_3275"/>
<feBlend mode="normal" in="SourceGraphic" in2="effect1_dropShadow_650_3275" result="shape"/>
</filter>
<clipPath id="clip0_650_3275">
<rect width="16" height="16" fill="white" transform="translate(17 1) rotate(90)"/>
</clipPath>
</defs>
</svg>
